<svg xmlns="http://www.w3.org/2000/svg" viewBox="0 0 1000 500" fill="none" stroke="rgba(0,255,255,0.2)" stroke-width="0.4" stroke-linejoin="round">
  <!-- Simplified continent outlines -->
  <path d="M 85 125 Q 150 85 220 105 Q 280 140 260 200 Q 240 280 200 350 Q 160 410 110 400 Q 80 320 85 125 Z" />
  <path d="M 290 95 Q 370 85 440 120 Q 480 170 470 240 Q 450 320 390 380 Q 320 430 270 400 Q 260 300 290 95 Z" />
  <path d="M 500 75 Q 620 65 740 95 Q 820 150 840 230 Q 830 320 760 400 Q 660 450 550 420 Q 480 350 500 75 Z" />
  <path d="M 850 180 Q 900 160 940 210 Q 950 300 910 380 Q 860 440 830 400 Q 840 280 850 180 Z" />
  <path d="M 140 400 Q 220 380 300 420 Q 360 460 320 490 Q 240 480 160 450 Q 130 420 140 400 Z" />
  <path d="M 540 370 Q 640 350 750 400 Q 820 440 780 480 Q 680 475 580 450 Q 530 410 540 370 Z" />
  <!-- Latitude lines -->
  <path d="M 0 100 Q 500 85 1000 100" opacity="0.65" />
  <path d="M 0 250 Q 500 250 1000 250" opacity="0.65" />
  <path d="M 0 400 Q 500 415 1000 400" opacity="0.65" />
  <!-- Longitude lines -->
  <path d="M 250 0 Q 255 250 250 500" opacity="0.55" />
  <path d="M 500 0 Q 500 250 500 500" opacity="0.55" />
  <path d="M 750 0 Q 745 250 750 500" opacity="0.55" />
  <!-- Glowing dots at intersections -->
  <circle cx="250" cy="100" r="1.2" fill="rgba(0,255,255,0.35)" />
  <circle cx="500" cy="100" r="1.2" fill="rgba(0,255,255,0.35)" />
  <circle cx="750" cy="100" r="1.2" fill="rgba(0,255,255,0.35)" />
  <circle cx="250" cy="250" r="1.2" fill="rgba(0,255,255,0.35)" />
  <circle cx="500" cy="250" r="1.2" fill="rgba(0,255,255,0.35)" />
  <circle cx="750" cy="250" r="1.2" fill="rgba(0,255,255,0.35)" />
  <circle cx="250" cy="400" r="1.2" fill="rgba(0,255,255,0.35)" />
  <circle cx="500" cy="400" r="1.2" fill="rgba(0,255,255,0.35)" />
  <circle cx="750" cy="400" r="1.2" fill="rgba(0,255,255,0.35)" />
</svg>
